<svg width="104" height="106" viewBox="0 0 104 106" fill="none" xmlns="http://www.w3.org/2000/svg">
<path d="M2.14421 10.9324C1.59101 5.62177 5.75636 1 11.0958 1H92.9042C98.2436 1 102.409 5.62178 101.856 10.9325L93.7398 88.8462C93.3438 92.6473 90.5905 95.7838 86.8728 96.669L54.0846 104.476C52.714 104.802 51.286 104.802 49.9154 104.476L17.1272 96.669C13.4095 95.7838 10.6562 92.6473 10.2602 88.8462L2.14421 10.9324Z" fill="white" stroke="#124279" stroke-width="2"/>
<path fill-rule="evenodd" clip-rule="evenodd" d="M11.0958 0C5.1631 0 0.534932 5.1353 1.14959 11.036L3.54167 34H100.458L102.85 11.0361C103.465 5.13531 98.8369 0 92.9042 0H11.0958Z" fill="url(#paint0_linear)"/>
<g filter="url(#filter0_d)">
<path d="M19.7077 24.864H23.6277V14.574C23.6277 14.07 23.6417 13.5427 23.6697 12.992L21.3597 14.91C21.2104 15.0313 21.061 15.12 20.9117 15.176C20.7624 15.2227 20.6177 15.246 20.4777 15.246C20.235 15.246 20.0157 15.1947 19.8197 15.092C19.633 14.98 19.493 14.8633 19.3997 14.742L18.0277 12.922L24.3837 7.588H27.9677V24.864H31.3277V28H19.7077V24.864ZM48.1019 17.794C48.1019 19.5767 47.9105 21.1213 47.5279 22.428C47.1452 23.7347 46.6132 24.8173 45.9319 25.676C45.2599 26.5347 44.4572 27.174 43.5239 27.594C42.5999 28.014 41.5965 28.224 40.5139 28.224C39.4312 28.224 38.4279 28.014 37.5039 27.594C36.5892 27.174 35.7959 26.5347 35.1239 25.676C34.4519 24.8173 33.9245 23.7347 33.5419 22.428C33.1685 21.1213 32.9819 19.5767 32.9819 17.794C32.9819 16.0113 33.1685 14.4667 33.5419 13.16C33.9245 11.8533 34.4519 10.7707 35.1239 9.912C35.7959 9.05333 36.5892 8.41867 37.5039 8.008C38.4279 7.588 39.4312 7.378 40.5139 7.378C41.5965 7.378 42.5999 7.588 43.5239 8.008C44.4572 8.41867 45.2599 9.05333 45.9319 9.912C46.6132 10.7707 47.1452 11.8533 47.5279 13.16C47.9105 14.4667 48.1019 16.0113 48.1019 17.794ZM43.6219 17.794C43.6219 16.3847 43.5332 15.232 43.3559 14.336C43.1785 13.4307 42.9405 12.7213 42.6419 12.208C42.3525 11.6947 42.0212 11.3447 41.6479 11.158C41.2745 10.962 40.8965 10.864 40.5139 10.864C40.1312 10.864 39.7532 10.962 39.3799 11.158C39.0159 11.3447 38.6892 11.6947 38.3999 12.208C38.1199 12.7213 37.8912 13.4307 37.7139 14.336C37.5459 15.232 37.4619 16.3847 37.4619 17.794C37.4619 19.2127 37.5459 20.37 37.7139 21.266C37.8912 22.162 38.1199 22.8713 38.3999 23.394C38.6892 23.9073 39.0159 24.262 39.3799 24.458C39.7532 24.6447 40.1312 24.738 40.5139 24.738C40.8965 24.738 41.2745 24.6447 41.6479 24.458C42.0212 24.262 42.3525 23.9073 42.6419 23.394C42.9405 22.8713 43.1785 22.162 43.3559 21.266C43.5332 20.37 43.6219 19.2127 43.6219 17.794ZM64.3441 17.794C64.3441 19.5767 64.1527 21.1213 63.7701 22.428C63.3874 23.7347 62.8554 24.8173 62.1741 25.676C61.5021 26.5347 60.6994 27.174 59.7661 27.594C58.8421 28.014 57.8387 28.224 56.7561 28.224C55.6734 28.224 54.6701 28.014 53.7461 27.594C52.8314 27.174 52.0381 26.5347 51.3661 25.676C50.6941 24.8173 50.1667 23.7347 49.7841 22.428C49.4107 21.1213 49.2241 19.5767 49.2241 17.794C49.2241 16.0113 49.4107 14.4667 49.7841 13.16C50.1667 11.8533 50.6941 10.7707 51.3661 9.912C52.0381 9.05333 52.8314 8.41867 53.7461 8.008C54.6701 7.588 55.6734 7.378 56.7561 7.378C57.8387 7.378 58.8421 7.588 59.7661 8.008C60.6994 8.41867 61.5021 9.05333 62.1741 9.912C62.8554 10.7707 63.3874 11.8533 63.7701 13.16C64.1527 14.4667 64.3441 16.0113 64.3441 17.794ZM59.8641 17.794C59.8641 16.3847 59.7754 15.232 59.5981 14.336C59.4207 13.4307 59.1827 12.7213 58.8841 12.208C58.5947 11.6947 58.2634 11.3447 57.8901 11.158C57.5167 10.962 57.1387 10.864 56.7561 10.864C56.3734 10.864 55.9954 10.962 55.6221 11.158C55.2581 11.3447 54.9314 11.6947 54.6421 12.208C54.3621 12.7213 54.1334 13.4307 53.9561 14.336C53.7881 15.232 53.7041 16.3847 53.7041 17.794C53.7041 19.2127 53.7881 20.37 53.9561 21.266C54.1334 22.162 54.3621 22.8713 54.6421 23.394C54.9314 23.9073 55.2581 24.262 55.6221 24.458C55.9954 24.6447 56.3734 24.738 56.7561 24.738C57.1387 24.738 57.5167 24.6447 57.8901 24.458C58.2634 24.262 58.5947 23.9073 58.8841 23.394C59.1827 22.8713 59.4207 22.162 59.5981 21.266C59.7754 20.37 59.8641 19.2127 59.8641 17.794ZM75.3783 12.544C75.3783 13.2907 75.2429 13.972 74.9723 14.588C74.7016 15.204 74.3423 15.736 73.8943 16.184C73.4463 16.6227 72.9236 16.9633 72.3263 17.206C71.7383 17.4487 71.1223 17.57 70.4783 17.57C69.7689 17.57 69.1156 17.4487 68.5183 17.206C67.9303 16.9633 67.4169 16.6227 66.9783 16.184C66.5489 15.736 66.2129 15.204 65.9703 14.588C65.7276 13.972 65.6063 13.2907 65.6063 12.544C65.6063 11.7693 65.7276 11.0693 65.9703 10.444C66.2129 9.80933 66.5489 9.268 66.9783 8.82C67.4169 8.372 67.9303 8.02667 68.5183 7.784C69.1156 7.532 69.7689 7.406 70.4783 7.406C71.1876 7.406 71.8409 7.532 72.4383 7.784C73.0449 8.02667 73.5629 8.372 73.9923 8.82C74.4309 9.268 74.7716 9.80933 75.0143 10.444C75.2569 11.0693 75.3783 11.7693 75.3783 12.544ZM72.0463 12.544C72.0463 12.068 72.0043 11.676 71.9203 11.368C71.8456 11.0507 71.7383 10.7987 71.5983 10.612C71.4583 10.4253 71.2903 10.2947 71.0943 10.22C70.9076 10.1453 70.7023 10.108 70.4783 10.108C70.2543 10.108 70.0489 10.1453 69.8623 10.22C69.6756 10.2947 69.5169 10.4253 69.3863 10.612C69.2556 10.7987 69.1529 11.0507 69.0783 11.368C69.0036 11.676 68.9663 12.068 68.9663 12.544C68.9663 12.992 69.0036 13.3653 69.0783 13.664C69.1529 13.9627 69.2556 14.2007 69.3863 14.378C69.5169 14.5553 69.6756 14.6813 69.8623 14.756C70.0489 14.8307 70.2543 14.868 70.4783 14.868C70.7023 14.868 70.9076 14.8307 71.0943 14.756C71.2903 14.6813 71.4583 14.5553 71.5983 14.378C71.7383 14.2007 71.8456 13.9627 71.9203 13.664C72.0043 13.3653 72.0463 12.992 72.0463 12.544ZM81.7903 8.246C81.9303 8.08733 82.1029 7.94267 82.3083 7.812C82.5136 7.672 82.7983 7.602 83.1623 7.602H86.3263L70.9543 27.384C70.8143 27.5613 70.6369 27.7107 70.4223 27.832C70.2169 27.944 69.9649 28 69.6663 28H66.4183L81.7903 8.246ZM87.1103 23.212C87.1103 23.9587 86.9749 24.6447 86.7043 25.27C86.4336 25.886 86.0743 26.418 85.6263 26.866C85.1783 27.3047 84.6556 27.6453 84.0583 27.888C83.4703 28.1307 82.8543 28.252 82.2103 28.252C81.5009 28.252 80.8476 28.1307 80.2503 27.888C79.6623 27.6453 79.1489 27.3047 78.7103 26.866C78.2809 26.418 77.9449 25.886 77.7023 25.27C77.4596 24.6447 77.3383 23.9587 77.3383 23.212C77.3383 22.4373 77.4596 21.7373 77.7023 21.112C77.9449 20.4773 78.2809 19.936 78.7103 19.488C79.1489 19.04 79.6623 18.6947 80.2503 18.452C80.8476 18.2 81.5009 18.074 82.2103 18.074C82.9196 18.074 83.5729 18.2 84.1703 18.452C84.7769 18.6947 85.2949 19.04 85.7243 19.488C86.1629 19.936 86.5036 20.4773 86.7463 21.112C86.9889 21.7373 87.1103 22.4373 87.1103 23.212ZM83.7783 23.212C83.7783 22.7453 83.7363 22.358 83.6523 22.05C83.5776 21.7327 83.4703 21.4807 83.3303 21.294C83.1903 21.1073 83.0223 20.9767 82.8263 20.902C82.6396 20.8273 82.4343 20.79 82.2103 20.79C81.9863 20.79 81.7809 20.8273 81.5943 20.902C81.4076 20.9767 81.2489 21.1073 81.1183 21.294C80.9876 21.4807 80.8849 21.7327 80.8103 22.05C80.7356 22.358 80.6983 22.7453 80.6983 23.212C80.6983 23.66 80.7356 24.0333 80.8103 24.332C80.8849 24.6307 80.9876 24.8687 81.1183 25.046C81.2489 25.2233 81.4076 25.3493 81.5943 25.424C81.7809 25.4987 81.9863 25.536 82.2103 25.536C82.4343 25.536 82.6396 25.4987 82.8263 25.424C83.0223 25.3493 83.1903 25.2233 83.3303 25.046C83.4703 24.8687 83.5776 24.6307 83.6523 24.332C83.7363 24.0333 83.7783 23.66 83.7783 23.212Z" fill="white"/>
</g>
<path d="M26.8185 42.1315C26.7335 42.2675 26.6428 42.3695 26.5465 42.4375C26.4558 42.5055 26.3368 42.5395 26.1895 42.5395C26.0592 42.5395 25.9175 42.4998 25.7645 42.4205C25.6172 42.3355 25.4472 42.242 25.2545 42.14C25.0675 42.038 24.8522 41.9473 24.6085 41.868C24.3648 41.783 24.0872 41.7405 23.7755 41.7405C23.2372 41.7405 22.8348 41.8567 22.5685 42.089C22.3078 42.3157 22.1775 42.6245 22.1775 43.0155C22.1775 43.2648 22.2568 43.4717 22.4155 43.636C22.5742 43.8003 22.781 43.942 23.036 44.061C23.2967 44.18 23.5913 44.2905 23.92 44.3925C24.2543 44.4888 24.5943 44.5993 24.94 44.724C25.2857 44.843 25.6228 44.9847 25.9515 45.149C26.2858 45.3133 26.5805 45.523 26.8355 45.778C27.0962 46.033 27.3058 46.3447 27.4645 46.713C27.6232 47.0757 27.7025 47.5148 27.7025 48.0305C27.7025 48.6028 27.6033 49.1383 27.405 49.637C27.2067 50.1357 26.9177 50.572 26.538 50.946C26.164 51.3143 25.6993 51.6062 25.144 51.8215C24.5943 52.0312 23.9682 52.136 23.2655 52.136C22.8802 52.136 22.4863 52.0963 22.084 52.017C21.6873 51.9377 21.302 51.8272 20.928 51.6855C20.554 51.5382 20.2027 51.3653 19.874 51.167C19.5453 50.9687 19.2592 50.7477 19.0155 50.504L19.8655 49.161C19.9278 49.059 20.0157 48.9768 20.129 48.9145C20.2423 48.8522 20.3642 48.821 20.4945 48.821C20.6645 48.821 20.8345 48.8748 21.0045 48.9825C21.1802 49.0902 21.3757 49.2092 21.591 49.3395C21.812 49.4698 22.0642 49.5888 22.3475 49.6965C22.6308 49.8042 22.9652 49.858 23.3505 49.858C23.8718 49.858 24.277 49.7447 24.566 49.518C24.855 49.2857 24.9995 48.9202 24.9995 48.4215C24.9995 48.1325 24.9202 47.8973 24.7615 47.716C24.6028 47.5347 24.3932 47.3845 24.1325 47.2655C23.8775 47.1465 23.5857 47.0417 23.257 46.951C22.9283 46.8603 22.5912 46.7612 22.2455 46.6535C21.8998 46.5402 21.5627 46.4042 21.234 46.2455C20.9053 46.0812 20.6107 45.8687 20.35 45.608C20.095 45.3417 19.8882 45.013 19.7295 44.622C19.5708 44.2253 19.4915 43.738 19.4915 43.16C19.4915 42.6953 19.585 42.242 19.772 41.8C19.959 41.358 20.2338 40.9642 20.5965 40.6185C20.9592 40.2728 21.404 39.998 21.931 39.794C22.458 39.5843 23.0615 39.4795 23.7415 39.4795C24.1212 39.4795 24.4895 39.5107 24.8465 39.573C25.2092 39.6297 25.552 39.7175 25.875 39.8365C26.198 39.9498 26.4983 40.0887 26.776 40.253C27.0593 40.4117 27.3115 40.593 27.5325 40.797L26.8185 42.1315ZM37.4519 48.7955C37.5199 48.7955 37.5879 48.8097 37.6559 48.838C37.7239 48.8607 37.789 48.9032 37.8514 48.9655L38.9904 50.164C38.4917 50.8157 37.8655 51.3087 37.1119 51.643C36.3639 51.9717 35.477 52.136 34.4514 52.136C33.5107 52.136 32.6664 51.9773 31.9184 51.66C31.176 51.337 30.5442 50.895 30.0229 50.334C29.5072 49.7673 29.1105 49.0987 28.8329 48.328C28.5552 47.5517 28.4164 46.7102 28.4164 45.8035C28.4164 44.8798 28.575 44.0327 28.8924 43.262C29.2097 42.4857 29.6517 41.817 30.2184 41.256C30.7907 40.695 31.4735 40.2587 32.2669 39.947C33.0602 39.6353 33.9357 39.4795 34.8934 39.4795C35.358 39.4795 35.7944 39.522 36.2024 39.607C36.616 39.6863 37.0014 39.7997 37.3584 39.947C37.7154 40.0887 38.044 40.2615 38.3444 40.4655C38.6447 40.6638 38.911 40.8848 39.1434 41.1285L38.1744 42.429C38.112 42.5083 38.0384 42.582 37.9534 42.65C37.8684 42.7123 37.7494 42.7435 37.5964 42.7435C37.4944 42.7435 37.398 42.7208 37.3074 42.6755C37.2167 42.6302 37.1204 42.5763 37.0184 42.514C36.9164 42.446 36.803 42.3752 36.6784 42.3015C36.5594 42.2222 36.4149 42.1513 36.2449 42.089C36.0805 42.021 35.885 41.9643 35.6584 41.919C35.4374 41.8737 35.1767 41.851 34.8764 41.851C34.355 41.851 33.879 41.9445 33.4484 42.1315C33.0177 42.3128 32.6465 42.5763 32.3349 42.922C32.0289 43.262 31.788 43.6757 31.6124 44.163C31.4424 44.6503 31.3574 45.1972 31.3574 45.8035C31.3574 46.4382 31.4424 47.002 31.6124 47.495C31.788 47.988 32.0232 48.4045 32.3179 48.7445C32.6182 49.0788 32.9667 49.3338 33.3634 49.5095C33.76 49.6852 34.185 49.773 34.6384 49.773C34.899 49.773 35.137 49.7617 35.3524 49.739C35.5677 49.7107 35.766 49.6653 35.9474 49.603C36.1344 49.5407 36.31 49.4613 36.4744 49.365C36.6444 49.263 36.8144 49.1383 36.9844 48.991C37.0524 48.9343 37.126 48.889 37.2054 48.855C37.2847 48.8153 37.3669 48.7955 37.4519 48.7955ZM51.1152 52H48.2252V46.764H43.1932V52H40.3032V39.6155H43.1932V44.792H48.2252V39.6155H51.1152V52ZM58.3038 49.7305C58.6892 49.7305 59.032 49.6682 59.3323 49.5435C59.6383 49.4132 59.8962 49.229 60.1058 48.991C60.3155 48.753 60.4742 48.464 60.5818 48.124C60.6952 47.7783 60.7518 47.3873 60.7518 46.951V39.6155H63.6248V46.951C63.6248 47.7103 63.5002 48.4073 63.2508 49.042C63.0072 49.6767 62.6558 50.2235 62.1968 50.6825C61.7378 51.1415 61.1797 51.4985 60.5223 51.7535C59.865 52.0085 59.1255 52.136 58.3038 52.136C57.4765 52.136 56.7342 52.0085 56.0768 51.7535C55.4195 51.4985 54.8613 51.1415 54.4023 50.6825C53.9433 50.2235 53.592 49.6767 53.3483 49.042C53.1047 48.4073 52.9828 47.7103 52.9828 46.951V39.6155H55.8558V46.9425C55.8558 47.3788 55.9097 47.7698 56.0173 48.1155C56.1307 48.4555 56.2922 48.7473 56.5018 48.991C56.7115 49.229 56.9665 49.4132 57.2668 49.5435C57.5728 49.6682 57.9185 49.7305 58.3038 49.7305ZM73.4608 39.6155V41.8255H68.3778V44.962H72.6108V47.1805H68.3778V52H65.4878V39.6155H73.4608ZM85.1153 52H82.8883C82.639 52 82.4322 51.9433 82.2678 51.83C82.1092 51.711 81.9987 51.5608 81.9363 51.3795L81.2053 49.2205H76.4963L75.7653 51.3795C75.7087 51.5382 75.5982 51.6827 75.4338 51.813C75.2695 51.9377 75.0683 52 74.8303 52H72.5863L77.3803 39.6155H80.3213L85.1153 52ZM77.1593 47.2655H80.5423L79.4033 43.874C79.3297 43.6587 79.2418 43.4065 79.1398 43.1175C79.0435 42.8228 78.9472 42.5055 78.8508 42.1655C78.7602 42.5112 78.6667 42.8313 78.5703 43.126C78.474 43.4207 78.3833 43.6757 78.2983 43.891L77.1593 47.2655ZM15.7185 55.6155C15.8432 55.6155 15.948 55.6212 16.033 55.6325C16.118 55.6438 16.1945 55.6665 16.2625 55.7005C16.3305 55.7288 16.3957 55.7713 16.458 55.828C16.5204 55.8847 16.5912 55.9612 16.6705 56.0575L22.5525 63.495C22.5299 63.257 22.5129 63.0275 22.5015 62.8065C22.4902 62.5798 22.4845 62.3673 22.4845 62.169V55.6155H25.0175V68H23.5215C23.3005 68 23.1135 67.966 22.9605 67.898C22.8075 67.83 22.6602 67.7053 22.5185 67.524L16.679 60.146C16.696 60.3613 16.7102 60.5738 16.7215 60.7835C16.7329 60.9875 16.7385 61.1802 16.7385 61.3615V68H14.2055V55.6155H15.7185ZM35.0282 55.6155V57.8255H29.9452V60.7155H33.8382V62.8405H29.9452V65.79H35.0282V68H27.0552V55.6155H35.0282ZM41.8185 65.7305C42.2038 65.7305 42.5466 65.6682 42.847 65.5435C43.153 65.4132 43.4108 65.229 43.6205 64.991C43.8301 64.753 43.9888 64.464 44.0965 64.124C44.2098 63.7783 44.2665 63.3873 44.2665 62.951V55.6155H47.1395V62.951C47.1395 63.7103 47.0148 64.4073 46.7655 65.042C46.5218 65.6767 46.1705 66.2235 45.7115 66.6825C45.2525 67.1415 44.6943 67.4985 44.037 67.7535C43.3796 68.0085 42.6401 68.136 41.8185 68.136C40.9911 68.136 40.2488 68.0085 39.5915 67.7535C38.9341 67.4985 38.376 67.1415 37.917 66.6825C37.458 66.2235 37.1066 65.6767 36.863 65.042C36.6193 64.4073 36.4975 63.7103 36.4975 62.951V55.6155H39.3705V62.9425C39.3705 63.3788 39.4243 63.7698 39.532 64.1155C39.6453 64.4555 39.8068 64.7473 40.0165 64.991C40.2261 65.229 40.4811 65.4132 40.7815 65.5435C41.0875 65.6682 41.4331 65.7305 41.8185 65.7305ZM57.9954 55.6155V57.8935H54.5104V68H51.6374V57.8935H48.1524V55.6155H57.9954ZM62.0522 63.4185V68H59.1792V55.6155H63.2082C64.1035 55.6155 64.8657 55.709 65.4947 55.896C66.1294 56.0773 66.645 56.3323 67.0417 56.661C67.444 56.9897 67.7359 57.3778 67.9172 57.8255C68.0985 58.2732 68.1892 58.7605 68.1892 59.2875C68.1892 59.6898 68.1354 60.0695 68.0277 60.4265C67.92 60.7835 67.7585 61.115 67.5432 61.421C67.3335 61.7213 67.0729 61.9905 66.7612 62.2285C66.4552 62.4665 66.101 62.662 65.6987 62.815C65.8914 62.9113 66.0699 63.0303 66.2342 63.172C66.4042 63.3137 66.5515 63.4865 66.6762 63.6905L69.3112 68H66.7102C66.2285 68 65.8829 67.8187 65.6732 67.456L63.6162 63.8605C63.5255 63.7018 63.4179 63.5885 63.2932 63.5205C63.1742 63.4525 63.0042 63.4185 62.7832 63.4185H62.0522ZM62.0522 61.438H63.2082C63.5992 61.438 63.9307 61.3898 64.2027 61.2935C64.4804 61.1915 64.707 61.0527 64.8827 60.877C65.0584 60.7013 65.1859 60.4973 65.2652 60.265C65.3445 60.027 65.3842 59.772 65.3842 59.5C65.3842 58.956 65.2057 58.531 64.8487 58.225C64.4974 57.919 63.9505 57.766 63.2082 57.766H62.0522V61.438ZM82.0109 68H79.7839C79.5345 68 79.3277 67.9433 79.1634 67.83C79.0047 67.711 78.8942 67.5608 78.8319 67.3795L78.1009 65.2205H73.3919L72.6609 67.3795C72.6042 67.5382 72.4937 67.6827 72.3294 67.813C72.165 67.9377 71.9639 68 71.7259 68H69.4819L74.2759 55.6155H77.2169L82.0109 68ZM74.0549 63.2655H77.4379L76.2989 59.874C76.2252 59.6587 76.1374 59.4065 76.0354 59.1175C75.939 58.8228 75.8427 58.5055 75.7464 58.1655C75.6557 58.5112 75.5622 58.8313 75.4659 59.126C75.3695 59.4207 75.2789 59.6757 75.1939 59.891L74.0549 63.2655ZM85.892 65.705H90.482V68H83.019V55.6155H85.892V65.705Z" fill="#124279"/>
<path d="M52 73C44.824 73 39 78.824 39 86C39 93.176 44.824 99 52 99C59.176 99 65 93.176 65 86C65 78.824 59.176 73 52 73Z" fill="#339E33"/>
<path d="M58.885 79.37L49 89.255L45.115 85.385L43 87.5L49 93.5L61 81.5L58.885 79.37Z" fill="white"/>
<rect x="15" y="85" width="20" height="2" rx="1" fill="#339E33"/>
<rect x="69" y="85" width="20" height="2" rx="1" fill="#339E33"/>
<defs>
<filter id="filter0_d" x="16.0277" y="5.37799" width="71.0826" height="22.874" filterUnits="userSpaceOnUse" color-interpolation-filters="sRGB">
<feFlood flood-opacity="0" result="BackgroundImageFix"/>
<feColorMatrix in="SourceAlpha" type="matrix" values="0 0 0 0 0 0 0 0 0 0 0 0 0 0 0 0 0 0 127 0"/>
<feOffset dx="-1" dy="-1"/>
<feGaussianBlur stdDeviation="0.5"/>
<feColorMatrix type="matrix" values="0 0 0 0 0 0 0 0 0 0 0 0 0 0 0 0 0 0 0.25 0"/>
<feBlend mode="normal" in2="BackgroundImageFix" result="effect1_dropShadow"/>
<feBlend mode="normal" in="SourceGraphic" in2="effect1_dropShadow" result="shape"/>
</filter>
<linearGradient id="paint0_linear" x1="52" y1="0" x2="52" y2="34" gradientUnits="userSpaceOnUse">
<stop stop-color="#1486C8"/>
<stop offset="1" stop-color="#124279"/>
</linearGradient>
</defs>
</svg>
