<svg width="126" height="130" viewBox="0 0 126 130" fill="none" xmlns="http://www.w3.org/2000/svg">
<g filter="url(#filter0_d)">
<path d="M59.4343 7.01363C60.917 4.09729 65.083 4.0973 66.5657 7.01363L68.1082 10.0479C69.3411 12.473 72.5829 12.9864 74.5049 11.061L76.9096 8.65194C79.2209 6.3365 83.183 7.62389 83.6919 10.8556L84.2213 14.2181C84.6445 16.9055 87.569 18.3955 89.9918 17.1583L93.0233 15.6102C95.9369 14.1223 99.3073 16.5711 98.7926 19.8019L98.2571 23.1634C97.8291 25.85 100.15 28.1709 102.837 27.7429L106.198 27.2074C109.429 26.6927 111.878 30.0631 110.39 32.9767L108.842 36.0082C107.604 38.431 109.095 41.3555 111.782 41.7787L115.144 42.3081C118.376 42.817 119.663 46.7791 117.348 49.0904L114.939 51.4951C113.014 53.4171 113.527 56.6589 115.952 57.8918L118.986 59.4343C121.903 60.917 121.903 65.083 118.986 66.5657L115.952 68.1082C113.527 69.3411 113.014 72.5829 114.939 74.5049L117.348 76.9096C119.663 79.2209 118.376 83.183 115.144 83.6919L111.782 84.2213C109.095 84.6445 107.604 87.569 108.842 89.9918L110.39 93.0233C111.878 95.9369 109.429 99.3073 106.198 98.7926L102.837 98.2571C100.15 97.8291 97.8291 100.15 98.2571 102.837L98.7926 106.198C99.3073 109.429 95.9369 111.878 93.0233 110.39L89.9918 108.842C87.569 107.604 84.6445 109.095 84.2213 111.782L83.6919 115.144C83.183 118.376 79.2209 119.663 76.9096 117.348L74.5049 114.939C72.5829 113.014 69.3411 113.527 68.1082 115.952L66.5657 118.986C65.083 121.903 60.917 121.903 59.4343 118.986L57.8918 115.952C56.6589 113.527 53.4171 113.014 51.4951 114.939L49.0904 117.348C46.7791 119.663 42.817 118.376 42.3081 115.144L41.7787 111.782C41.3555 109.095 38.431 107.604 36.0082 108.842L32.9767 110.39C30.0631 111.878 26.6927 109.429 27.2074 106.198L27.7429 102.837C28.1709 100.15 25.85 97.8291 23.1634 98.2571L19.8019 98.7926C16.5711 99.3073 14.1223 95.9369 15.6102 93.0233L17.1583 89.9918C18.3955 87.569 16.9055 84.6445 14.2181 84.2213L10.8556 83.6919C7.62388 83.183 6.33651 79.2209 8.65195 76.9096L11.061 74.5049C12.9864 72.5829 12.473 69.3411 10.0479 68.1082L7.01363 66.5657C4.09729 65.083 4.0973 60.917 7.01363 59.4343L10.0479 57.8918C12.473 56.6589 12.9864 53.4171 11.061 51.4951L8.65195 49.0904C6.33651 46.7791 7.62389 42.817 10.8556 42.3081L14.2181 41.7787C16.9055 41.3555 18.3955 38.431 17.1583 36.0082L15.6102 32.9767C14.1223 30.0631 16.5711 26.6927 19.8019 27.2074L23.1634 27.7429C25.85 28.1709 28.1709 25.85 27.7429 23.1634L27.2074 19.8019C26.6927 16.5711 30.0631 14.1223 32.9767 15.6102L36.0082 17.1583C38.431 18.3955 41.3555 16.9055 41.7787 14.2181L42.3081 10.8556C42.817 7.62388 46.7791 6.33651 49.0904 8.65195L51.4951 11.061C53.4171 12.9864 56.6589 12.473 57.8918 10.0479L59.4343 7.01363Z" fill="#3E6FA6"/>
</g>
<circle cx="63" cy="63" r="45" fill="#165297"/>
<g filter="url(#filter1_d)">
<path d="M61.1454 28.801V30.677H58.2754V39H55.9094V30.677H53.0394V28.801H61.1454ZM63.9597 31.629C64.5104 31.629 65.0121 31.7153 65.4647 31.888C65.9174 32.0607 66.3047 32.308 66.6267 32.63C66.9534 32.952 67.2054 33.344 67.3827 33.806C67.5647 34.2633 67.6557 34.779 67.6557 35.353C67.6557 35.9317 67.5647 36.4543 67.3827 36.921C67.2054 37.383 66.9534 37.7773 66.6267 38.104C66.3047 38.426 65.9174 38.6757 65.4647 38.853C65.0121 39.0257 64.5104 39.112 63.9597 39.112C63.4044 39.112 62.8981 39.0257 62.4407 38.853C61.9881 38.6757 61.5961 38.426 61.2647 38.104C60.9381 37.7773 60.6837 37.383 60.5017 36.921C60.3244 36.4543 60.2357 35.9317 60.2357 35.353C60.2357 34.779 60.3244 34.2633 60.5017 33.806C60.6837 33.344 60.9381 32.952 61.2647 32.63C61.5961 32.308 61.9881 32.0607 62.4407 31.888C62.8981 31.7153 63.4044 31.629 63.9597 31.629ZM63.9597 37.502C64.4591 37.502 64.8254 37.327 65.0587 36.977C65.2967 36.6223 65.4157 36.0857 65.4157 35.367C65.4157 34.6483 65.2967 34.114 65.0587 33.764C64.8254 33.414 64.4591 33.239 63.9597 33.239C63.4464 33.239 63.0707 33.414 62.8327 33.764C62.5947 34.114 62.4757 34.6483 62.4757 35.367C62.4757 36.0857 62.5947 36.6223 62.8327 36.977C63.0707 37.327 63.4464 37.502 63.9597 37.502ZM68.8468 41.303V31.741H70.1908C70.3262 31.741 70.4382 31.7713 70.5268 31.832C70.6202 31.8927 70.6855 31.9837 70.7228 32.105L70.8838 32.637C71.0238 32.483 71.1732 32.343 71.3318 32.217C71.4952 32.091 71.6678 31.9837 71.8498 31.895C72.0365 31.8017 72.2348 31.7293 72.4448 31.678C72.6595 31.6267 72.8928 31.601 73.1448 31.601C73.5228 31.601 73.8728 31.685 74.1948 31.853C74.5168 32.021 74.7945 32.2637 75.0278 32.581C75.2612 32.8983 75.4432 33.288 75.5738 33.75C75.7092 34.2073 75.7768 34.7277 75.7768 35.311C75.7768 35.857 75.6998 36.361 75.5458 36.823C75.3965 37.285 75.1842 37.6863 74.9088 38.027C74.6382 38.3677 74.3115 38.6337 73.9288 38.825C73.5508 39.0163 73.1308 39.112 72.6688 39.112C72.2908 39.112 71.9735 39.0583 71.7168 38.951C71.4602 38.8437 71.2268 38.699 71.0168 38.517V41.303H68.8468ZM72.3888 33.26C72.2302 33.26 72.0855 33.2763 71.9548 33.309C71.8288 33.337 71.7098 33.379 71.5978 33.435C71.4905 33.491 71.3902 33.5633 71.2968 33.652C71.2035 33.736 71.1102 33.834 71.0168 33.946V37.026C71.1802 37.208 71.3575 37.3363 71.5488 37.411C71.7402 37.481 71.9408 37.516 72.1508 37.516C72.3515 37.516 72.5358 37.4763 72.7038 37.397C72.8718 37.3177 73.0165 37.1917 73.1378 37.019C73.2638 36.8417 73.3618 36.613 73.4318 36.333C73.5018 36.053 73.5368 35.7123 73.5368 35.311C73.5368 34.9283 73.5088 34.6063 73.4528 34.345C73.3968 34.0837 73.3175 33.8737 73.2148 33.715C73.1168 33.5517 72.9978 33.435 72.8578 33.365C72.7178 33.295 72.5615 33.26 72.3888 33.26ZM57.1998 43.43V44.65C57.1998 44.8233 57.1698 44.9933 57.1098 45.16C57.0565 45.3267 56.9798 45.4833 56.8798 45.63L50.0398 55.4H56.9798V58H45.7398V56.7C45.7398 56.5467 45.7665 56.3967 45.8198 56.25C45.8732 56.0967 45.9465 55.9567 46.0398 55.83L52.8998 46.03H46.2998V43.43H57.1998ZM61.9469 47.63V58H58.8469V47.63H61.9469ZM62.3069 44.79C62.3069 45.0367 62.2569 45.27 62.1569 45.49C62.0569 45.7033 61.9202 45.8933 61.7469 46.06C61.5735 46.22 61.3702 46.35 61.1369 46.45C60.9102 46.5433 60.6669 46.59 60.4069 46.59C60.1535 46.59 59.9169 46.5433 59.6969 46.45C59.4769 46.35 59.2802 46.22 59.1069 46.06C58.9402 45.8933 58.8069 45.7033 58.7069 45.49C58.6135 45.27 58.5669 45.0367 58.5669 44.79C58.5669 44.5367 58.6135 44.3 58.7069 44.08C58.8069 43.86 58.9402 43.6667 59.1069 43.5C59.2802 43.3333 59.4769 43.2033 59.6969 43.11C59.9169 43.0167 60.1535 42.97 60.4069 42.97C60.6669 42.97 60.9102 43.0167 61.1369 43.11C61.3702 43.2033 61.5735 43.3333 61.7469 43.5C61.9202 43.6667 62.0569 43.86 62.1569 44.08C62.2569 44.3 62.3069 44.5367 62.3069 44.79ZM64.45 58V47.63H66.37C66.5633 47.63 66.7233 47.6733 66.85 47.76C66.9833 47.8467 67.0767 47.9767 67.13 48.15L67.31 48.75C67.51 48.5633 67.7167 48.39 67.93 48.23C68.1433 48.07 68.37 47.9367 68.61 47.83C68.8567 47.7167 69.12 47.63 69.4 47.57C69.6867 47.5033 69.9967 47.47 70.33 47.47C70.8967 47.47 71.3967 47.57 71.83 47.77C72.27 47.9633 72.64 48.2367 72.94 48.59C73.24 48.9367 73.4667 49.3533 73.62 49.84C73.7733 50.32 73.85 50.8433 73.85 51.41V58H70.75V51.41C70.75 50.9033 70.6333 50.51 70.4 50.23C70.1667 49.9433 69.8233 49.8 69.37 49.8C69.03 49.8 68.71 49.8733 68.41 50.02C68.11 50.1667 67.8233 50.3633 67.55 50.61V58H64.45ZM82.3916 49.9C82.3116 50.0267 82.2249 50.1167 82.1316 50.17C82.0449 50.2233 81.9316 50.25 81.7916 50.25C81.6449 50.25 81.4982 50.22 81.3516 50.16C81.2049 50.0933 81.0449 50.0233 80.8716 49.95C80.7049 49.8767 80.5149 49.81 80.3016 49.75C80.0882 49.6833 79.8449 49.65 79.5716 49.65C79.1782 49.65 78.8749 49.7267 78.6616 49.88C78.4549 50.0267 78.3516 50.2333 78.3516 50.5C78.3516 50.6933 78.4182 50.8533 78.5516 50.98C78.6916 51.1067 78.8749 51.22 79.1016 51.32C79.3282 51.4133 79.5849 51.5033 79.8716 51.59C80.1582 51.6767 80.4516 51.7733 80.7516 51.88C81.0516 51.9867 81.3449 52.1133 81.6316 52.26C81.9182 52.4 82.1749 52.5767 82.4016 52.79C82.6282 52.9967 82.8082 53.25 82.9416 53.55C83.0816 53.85 83.1516 54.21 83.1516 54.63C83.1516 55.1433 83.0582 55.6167 82.8716 56.05C82.6849 56.4833 82.4049 56.8567 82.0316 57.17C81.6649 57.4833 81.2082 57.7267 80.6616 57.9C80.1216 58.0733 79.4982 58.16 78.7916 58.16C78.4382 58.16 78.0849 58.1267 77.7316 58.06C77.3782 57.9933 77.0349 57.9033 76.7016 57.79C76.3749 57.6767 76.0716 57.5433 75.7916 57.39C75.5116 57.23 75.2716 57.06 75.0716 56.88L75.7916 55.74C75.8782 55.6067 75.9816 55.5033 76.1016 55.43C76.2216 55.35 76.3782 55.31 76.5716 55.31C76.7516 55.31 76.9116 55.35 77.0516 55.43C77.1982 55.51 77.3549 55.5967 77.5216 55.69C77.6882 55.7833 77.8816 55.87 78.1016 55.95C78.3282 56.03 78.6116 56.07 78.9516 56.07C79.1916 56.07 79.3949 56.0467 79.5616 56C79.7282 55.9467 79.8616 55.8767 79.9616 55.79C80.0616 55.7033 80.1349 55.6067 80.1816 55.5C80.2282 55.3933 80.2516 55.2833 80.2516 55.17C80.2516 54.9633 80.1816 54.7933 80.0416 54.66C79.9016 54.5267 79.7182 54.4133 79.4916 54.32C79.2649 54.22 79.0049 54.13 78.7116 54.05C78.4249 53.9633 78.1316 53.8667 77.8316 53.76C77.5316 53.6533 77.2349 53.5267 76.9416 53.38C76.6549 53.2267 76.3982 53.0367 76.1716 52.81C75.9449 52.5767 75.7616 52.2933 75.6216 51.96C75.4816 51.6267 75.4116 51.2233 75.4116 50.75C75.4116 50.31 75.4949 49.8933 75.6616 49.5C75.8349 49.1 76.0916 48.75 76.4316 48.45C76.7716 48.15 77.1982 47.9133 77.7116 47.74C78.2249 47.56 78.8249 47.47 79.5116 47.47C79.8849 47.47 80.2449 47.5033 80.5916 47.57C80.9449 47.6367 81.2749 47.73 81.5816 47.85C81.8882 47.97 82.1682 48.1133 82.4216 48.28C82.6749 48.44 82.8982 48.6167 83.0916 48.81L82.3916 49.9Z" fill="white"/>
</g>
<g filter="url(#filter2_d)">
<circle cx="43" cy="92" r="3" fill="#FFCC18"/>
<circle cx="53" cy="92" r="3" fill="#FFCC18"/>
<circle cx="63" cy="92" r="3" fill="#FFCC18"/>
<circle cx="73" cy="92" r="3" fill="#FFCC18"/>
<circle cx="83" cy="92" r="3" fill="#FFCC18"/>
</g>
<g filter="url(#filter3_d)">
<path d="M104 113C99.59 113 96 109.41 96 105C96 100.59 99.59 97 104 97C108.41 97 112 100.59 112 105C112 109.41 108.41 113 104 113Z" fill="white"/>
</g>
<g filter="url(#filter4_d)">
<path fill-rule="evenodd" clip-rule="evenodd" d="M12.7924 84L10.8357 83.6919C7.604 83.183 6.31662 79.2209 8.63202 76.9096L11.0411 74.5048C12.9665 72.5829 12.453 69.3411 10.028 68.1082L6.99374 66.5656C5.53559 65.8243 4.80652 64.4122 4.80652 63H121.151C121.151 64.4122 120.422 65.8243 118.964 66.5656L115.93 68.1082C113.505 69.3411 112.992 72.5829 114.917 74.5048L117.326 76.9096C119.641 79.2209 118.354 83.183 115.122 83.6919L113.166 84H12.7924Z" fill="#F09103"/>
</g>
<path fill-rule="evenodd" clip-rule="evenodd" d="M104 95C98.48 95 94 99.48 94 105C94 110.52 98.48 115 104 115C109.52 115 114 110.52 114 105C114 99.48 109.52 95 104 95ZM103 100V102H105V100H103ZM103 104V110H105V104H103ZM96 105C96 109.41 99.59 113 104 113C108.41 113 112 109.41 112 105C112 100.59 108.41 97 104 97C99.59 97 96 100.59 96 105Z" fill="#4070A7"/>
<path d="M31.6511 77.7826C32.0477 77.7826 32.3991 77.7486 32.7051 77.6806C33.0111 77.6126 33.3001 77.522 33.5721 77.4086V75.5301H32.3481C32.1667 75.5301 32.0251 75.482 31.9231 75.3856C31.8211 75.2893 31.7701 75.1675 31.7701 75.0201V73.4391H36.1731V78.6666C35.8557 78.899 35.5242 79.1001 35.1786 79.2701C34.8386 79.4345 34.4731 79.5705 34.0821 79.6781C33.6967 79.7858 33.2831 79.8651 32.8411 79.9161C32.4047 79.9671 31.9344 79.9926 31.4301 79.9926C30.5234 79.9926 29.6847 79.834 28.9141 79.5166C28.1434 79.1936 27.4747 78.7516 26.9081 78.1906C26.3471 77.624 25.9051 76.9553 25.5821 76.1846C25.2647 75.4083 25.1061 74.5668 25.1061 73.6601C25.1061 72.7365 25.2591 71.8893 25.5651 71.1186C25.8711 70.3423 26.3074 69.6736 26.8741 69.1126C27.4464 68.5516 28.1349 68.1153 28.9396 67.8036C29.7499 67.492 30.6537 67.3361 31.6511 67.3361C32.1667 67.3361 32.6512 67.3786 33.1046 67.4636C33.5579 67.5486 33.9744 67.6648 34.3541 67.8121C34.7394 67.9595 35.0907 68.1351 35.4081 68.3391C35.7254 68.5431 36.0087 68.7641 36.2581 69.0021L35.4251 70.2686C35.3457 70.3876 35.2494 70.4811 35.1361 70.5491C35.0284 70.6171 34.9094 70.6511 34.7791 70.6511C34.6091 70.6511 34.4334 70.5945 34.2521 70.4811C34.0254 70.3451 33.8101 70.229 33.6061 70.1326C33.4077 70.0306 33.2037 69.9485 32.9941 69.8861C32.7844 69.8238 32.5634 69.7785 32.3311 69.7501C32.0987 69.7218 31.8381 69.7076 31.5491 69.7076C31.0107 69.7076 30.5262 69.804 30.0956 69.9966C29.6649 70.1836 29.2966 70.45 28.9906 70.7956C28.6902 71.1413 28.4579 71.5578 28.2936 72.0451C28.1292 72.5268 28.0471 73.0651 28.0471 73.6601C28.0471 74.3175 28.1377 74.9011 28.3191 75.4111C28.5004 75.9211 28.7497 76.3518 29.0671 76.7031C29.3901 77.0545 29.7697 77.3236 30.2061 77.5106C30.6481 77.692 31.1297 77.7826 31.6511 77.7826ZM48.5986 79.8566H46.3716C46.1223 79.8566 45.9154 79.8 45.7511 79.6866C45.5924 79.5676 45.4819 79.4175 45.4196 79.2361L44.6886 77.0771H39.9796L39.2486 79.2361C39.1919 79.3948 39.0814 79.5393 38.9171 79.6696C38.7528 79.7943 38.5516 79.8566 38.3136 79.8566H36.0696L40.8636 67.4721H43.8046L48.5986 79.8566ZM40.6426 75.1221H44.0256L42.8866 71.7306C42.8129 71.5153 42.7251 71.2631 42.6231 70.9741C42.5268 70.6795 42.4304 70.3621 42.3341 70.0221C42.2434 70.3678 42.1499 70.688 42.0536 70.9826C41.9573 71.2773 41.8666 71.5323 41.7816 71.7476L40.6426 75.1221ZM51.6298 75.2751V79.8566H48.7568V67.4721H52.7858C53.6811 67.4721 54.4433 67.5656 55.0723 67.7526C55.707 67.934 56.2226 68.189 56.6193 68.5176C57.0216 68.8463 57.3135 69.2345 57.4948 69.6821C57.6761 70.1298 57.7668 70.6171 57.7668 71.1441C57.7668 71.5465 57.713 71.9261 57.6053 72.2831C57.4976 72.6401 57.3361 72.9716 57.1208 73.2776C56.9111 73.578 56.6505 73.8471 56.3388 74.0851C56.0328 74.3231 55.6786 74.5186 55.2763 74.6716C55.469 74.768 55.6475 74.887 55.8118 75.0286C55.9818 75.1703 56.1291 75.3431 56.2538 75.5471L58.8888 79.8566H56.2878C55.8061 79.8566 55.4605 79.6753 55.2508 79.3126L53.1938 75.7171C53.1031 75.5585 52.9955 75.4451 52.8708 75.3771C52.7518 75.3091 52.5818 75.2751 52.3608 75.2751H51.6298ZM51.6298 73.2946H52.7858C53.1768 73.2946 53.5083 73.2465 53.7803 73.1501C54.058 73.0481 54.2846 72.9093 54.4603 72.7336C54.636 72.558 54.7635 72.354 54.8428 72.1216C54.9221 71.8836 54.9618 71.6286 54.9618 71.3566C54.9618 70.8126 54.7833 70.3876 54.4263 70.0816C54.075 69.7756 53.5281 69.6226 52.7858 69.6226H51.6298V73.2946ZM70.7385 79.8566H68.5115C68.2621 79.8566 68.0553 79.8 67.891 79.6866C67.7323 79.5676 67.6218 79.4175 67.5595 79.2361L66.8285 77.0771H62.1195L61.3885 79.2361C61.3318 79.3948 61.2213 79.5393 61.057 79.6696C60.8926 79.7943 60.6915 79.8566 60.4535 79.8566H58.2095L63.0035 67.4721H65.9445L70.7385 79.8566ZM62.7825 75.1221H66.1655L65.0265 71.7306C64.9528 71.5153 64.865 71.2631 64.763 70.9741C64.6666 70.6795 64.5703 70.3621 64.474 70.0221C64.3833 70.3678 64.2898 70.688 64.1935 70.9826C64.0971 71.2773 64.0065 71.5323 63.9215 71.7476L62.7825 75.1221ZM72.4096 67.4721C72.5343 67.4721 72.6391 67.4778 72.7241 67.4891C72.8091 67.5005 72.8856 67.5231 72.9536 67.5571C73.0216 67.5855 73.0868 67.628 73.1491 67.6846C73.2115 67.7413 73.2823 67.8178 73.3616 67.9141L79.2436 75.3516C79.221 75.1136 79.204 74.8841 79.1926 74.6631C79.1813 74.4365 79.1756 74.224 79.1756 74.0256V67.4721H81.7086V79.8566H80.2126C79.9916 79.8566 79.8046 79.8226 79.6516 79.7546C79.4986 79.6866 79.3513 79.562 79.2096 79.3806L73.3701 72.0026C73.3871 72.218 73.4013 72.4305 73.4126 72.6401C73.424 72.8441 73.4296 73.0368 73.4296 73.2181V79.8566H70.8966V67.4721H72.4096ZM91.8892 67.4721V69.7501H88.4042V79.8566H85.5312V69.7501H82.0462V67.4721H91.8892ZM95.368 79.8566H92.478V67.4721H95.368V79.8566ZM104.791 67.4721V69.6821H99.7083V72.5721H103.601V74.6971H99.7083V77.6466H104.791V79.8566H96.8183V67.4721H104.791Z" fill="white"/>
<defs>
<filter id="filter0_d" x="0.826416" y="4.82639" width="124.347" height="124.347" filterUnits="userSpaceOnUse" color-interpolation-filters="sRGB">
<feFlood flood-opacity="0" result="BackgroundImageFix"/>
<feColorMatrix in="SourceAlpha" type="matrix" values="0 0 0 0 0 0 0 0 0 0 0 0 0 0 0 0 0 0 127 0"/>
<feOffset dy="4"/>
<feGaussianBlur stdDeviation="2"/>
<feColorMatrix type="matrix" values="0 0 0 0 0 0 0 0 0 0 0 0 0 0 0 0 0 0 0.25 0"/>
<feBlend mode="normal" in2="BackgroundImageFix" result="effect1_dropShadow"/>
<feBlend mode="normal" in="SourceGraphic" in2="effect1_dropShadow" result="shape"/>
</filter>
<filter id="filter1_d" x="43.7399" y="26.801" width="39.4117" height="31.359" filterUnits="userSpaceOnUse" color-interpolation-filters="sRGB">
<feFlood flood-opacity="0" result="BackgroundImageFix"/>
<feColorMatrix in="SourceAlpha" type="matrix" values="0 0 0 0 0 0 0 0 0 0 0 0 0 0 0 0 0 0 127 0"/>
<feOffset dx="-1" dy="-1"/>
<feGaussianBlur stdDeviation="0.5"/>
<feColorMatrix type="matrix" values="0 0 0 0 0 0 0 0 0 0 0 0 0 0 0 0 0 0 0.25 0"/>
<feBlend mode="normal" in2="BackgroundImageFix" result="effect1_dropShadow"/>
<feBlend mode="normal" in="SourceGraphic" in2="effect1_dropShadow" result="shape"/>
</filter>
<filter id="filter2_d" x="38" y="87" width="48" height="8" filterUnits="userSpaceOnUse" color-interpolation-filters="sRGB">
<feFlood flood-opacity="0" result="BackgroundImageFix"/>
<feColorMatrix in="SourceAlpha" type="matrix" values="0 0 0 0 0 0 0 0 0 0 0 0 0 0 0 0 0 0 127 0"/>
<feOffset dx="-1" dy="-1"/>
<feGaussianBlur stdDeviation="0.5"/>
<feColorMatrix type="matrix" values="0 0 0 0 0 0 0 0 0 0 0 0 0 0 0 0 0 0 0.15 0"/>
<feBlend mode="normal" in2="BackgroundImageFix" result="effect1_dropShadow"/>
<feBlend mode="normal" in="SourceGraphic" in2="effect1_dropShadow" result="shape"/>
</filter>
<filter id="filter3_d" x="94" y="95" width="24" height="24" filterUnits="userSpaceOnUse" color-interpolation-filters="sRGB">
<feFlood flood-opacity="0" result="BackgroundImageFix"/>
<feColorMatrix in="SourceAlpha" type="matrix" values="0 0 0 0 0 0 0 0 0 0 0 0 0 0 0 0 0 0 127 0"/>
<feOffset dx="2" dy="2"/>
<feGaussianBlur stdDeviation="2"/>
<feColorMatrix type="matrix" values="0 0 0 0 0 0 0 0 0 0 0 0 0 0 0 0 0 0 0.25 0"/>
<feBlend mode="normal" in2="BackgroundImageFix" result="effect1_dropShadow"/>
<feBlend mode="normal" in="SourceGraphic" in2="effect1_dropShadow" result="shape"/>
</filter>
<filter id="filter4_d" x="2.80652" y="61" width="120.345" height="25" filterUnits="userSpaceOnUse" color-interpolation-filters="sRGB">
<feFlood flood-opacity="0" result="BackgroundImageFix"/>
<feColorMatrix in="SourceAlpha" type="matrix" values="0 0 0 0 0 0 0 0 0 0 0 0 0 0 0 0 0 0 127 0"/>
<feOffset/>
<feGaussianBlur stdDeviation="1"/>
<feColorMatrix type="matrix" values="0 0 0 0 0 0 0 0 0 0 0 0 0 0 0 0 0 0 0.5 0"/>
<feBlend mode="normal" in2="BackgroundImageFix" result="effect1_dropShadow"/>
<feBlend mode="normal" in="SourceGraphic" in2="effect1_dropShadow" result="shape"/>
</filter>
</defs>
</svg>
